<svg id="Layer_1" data-name="Layer 1" xmlns="http://www.w3.org/2000/svg" xmlns:xlink="http://www.w3.org/1999/xlink" viewBox="0 0 1440 1222.9"><defs><linearGradient id="linear-gradient" x1="1253.71" y1="1316.76" x2="1253.71" y2="1315.76" gradientTransform="matrix(2427.16, 0, 0, -1527.53, -3042029.42, 2011154.16)" gradientUnits="userSpaceOnUse"><stop offset="0" stop-color="#dc1700"/><stop offset="1" stop-color="#f90"/></linearGradient></defs><title>bg-about</title><g id="Group_86" data-name="Group 86"><path id="Path_195" data-name="Path 195" d="M32,62.51c754,338,1004-122,1406-54S1936.06,251.91,2105.76,458s-721.76,838-721.76,838l-1630-77.42S-369.63,137.59-230.61-178.4C90.6-269.31-722-275.49,32,62.51Z" style="fill:url(#linear-gradient)"/><g id="Group_85" data-name="Group 85" style="opacity:0.20000000298023224"><path id="Path_197" data-name="Path 197" d="M2109.54,473.4c-170.7-205.4-270.1-372.7-670.1-445.1-403.9-73.1-654.1,388.4-1403.9,51.9-238.6-107.7-326.6-176.6-336.7-220.6" style="fill:none;stroke:#fff;stroke-miterlimit:10"/><path id="Path_198" data-name="Path 198" d="M2112.75,487.8c-171.7-204.8-274.5-364-672.5-440.7-405.8-78.2-656.2,384.8-1401.8,49.7C-203.16-12.9-296.46-78.6-304.46-120.3" style="fill:none;stroke:#fff;stroke-miterlimit:10"/><path id="Path_199" data-name="Path 199" d="M2116,502.2c-172.61-204.2-278.9-355.4-674.9-436.4C1033.34-17.5,781.84,449,41.44,113.4c-244.9-111-343.3-174.2-349.3-213.7" style="fill:none;stroke:#fff;stroke-miterlimit:10"/><path id="Path_200" data-name="Path 200" d="M2119.14,516.6c-173.6-203.6-283.3-346.9-677.3-432C1032.14-3.9,780.24,464.8,44.34,130-203.56,17.2-307.26-43-311.26-80.2" style="fill:none;stroke:#fff;stroke-miterlimit:10"/><path id="Path_201" data-name="Path 201" d="M2122.34,531c-174.59-203-287.7-338.4-679.7-427.6-411.8-93.8-664,377.1-1395.4,43.3C-203.66,32-312.66-25.3-314.56-60.2" style="fill:none;stroke:#fff;stroke-miterlimit:10"/><path id="Path_202" data-name="Path 202" d="M2125.54,545.4c-175.6-202.4-292.2-330-682-423.3-413.8-99-666.3,374.1-1393.3,41.1C-203.86,46.9-318.06-7.5-318-40.1" style="fill:none;stroke:#fff;stroke-miterlimit:10"/><path id="Path_203" data-name="Path 203" d="M2128.84,559.8c-176.5-201.8-296.6-321.6-684.4-418.9-415.9-104.3-668.7,371-1391.2,39C-204,61.7-323.36,10.3-321.26-20.1" style="fill:none;stroke:#fff;stroke-miterlimit:10"/><path id="Path_204" data-name="Path 204" d="M2132,574.2c-177.5-201.1-301.1-313.3-686.8-414.5-418.1-109.7-671,367.9-1389,36.8C-204,76.5-328.76,28.1-324.56,0" style="fill:none;stroke:#fff;stroke-miterlimit:10"/><path id="Path_205" data-name="Path 205" d="M2135.25,588.6c-178.5-200.5-305.61-305.1-689.2-410.2-420.21-115-673.3,364.8-1386.91,34.7-263.3-121.8-393.3-167.3-387.2-193" style="fill:none;stroke:#fff;stroke-miterlimit:10"/><path id="Path_206" data-name="Path 206" d="M2138.45,603C1959,403.1,1828.34,306,1447,197.2,1024.55,76.7,771.25,558.7,62.14,229.7c-266.4-123.6-401.7-166.1-393.5-189.6" style="fill:none;stroke:#fff;stroke-miterlimit:10"/><path id="Path_207" data-name="Path 207" d="M2141.64,617.4C1961.14,418.1,1827,328.5,1447.74,216c-424.6-126-678,358.4-1382.69,30.4C-204.46,120.9-345,81.4-334.76,60.2" style="fill:none;stroke:#fff;stroke-miterlimit:10"/><path id="Path_208" data-name="Path 208" d="M2144.84,631.8c-181.39-198.7-319.1-280.8-696.3-397C1021.64,103.3,768.24,589.9,67.94,263c-272.5-127.2-418.3-163.9-406.1-182.8" style="fill:none;stroke:#fff;stroke-miterlimit:10"/><path id="Path_209" data-name="Path 209" d="M2148,646.2c-182.4-198.1-323.59-272.9-698.7-392.7-429.1-137-682.5,351.9-1378.4,26.1-275.6-129-426.6-162.7-412.4-179.3" style="fill:none;stroke:#fff;stroke-miterlimit:10"/><path id="Path_210" data-name="Path 210" d="M2151.25,660.6c-183.4-197.4-328.11-265-701.1-388.3-431.4-142.7-684.8,348.6-1376.3,23.9C-204.76,165.4-361.06,134.7-344.86,120.4" style="fill:none;stroke:#fff;stroke-miterlimit:10"/><path id="Path_211" data-name="Path 211" d="M2154.45,675c-184.4-196.8-332.61-257.1-703.4-383.9C1017.34,142.8,764,636.4,76.84,312.8c-281.8-132.6-443.3-160.3-425-172.4" style="fill:none;stroke:#fff;stroke-miterlimit:10"/><path id="Path_212" data-name="Path 212" d="M2157.75,689.4C1972.34,493.2,1820.64,440.1,1452,309.8c-436-154-689.4,342.1-1372.1,19.6C-205.06,195-371.86,170.2-351.56,160.5" style="fill:none;stroke:#fff;stroke-miterlimit:10"/><path id="Path_213" data-name="Path 213" d="M2161,703.8c-186.31-195.6-341.61-241.6-708.21-375.2-438.29-159.7-691.6,338.7-1370,17.5C-205.16,209.8-377.26,188-355,180.5" style="fill:none;stroke:#fff;stroke-miterlimit:10"/><path id="Path_214" data-name="Path 214" d="M2164.14,718.2c-187.3-195-346.1-233.9-710.59-370.8C1012.84,181.9,759.64,682.8,85.64,362.7c-290.9-138.2-468.3-156.9-443.9-162.1" style="fill:none;stroke:#fff;stroke-miterlimit:10"/><path id="Path_215" data-name="Path 215" d="M2167.34,732.6c-188.3-194.4-350.6-226.3-713-366.5-443-171.4-696.1,332-1365.7,13.2-294-140-476.7-155.7-450.3-158.7" style="fill:none;stroke:#fff;stroke-miterlimit:10"/><path id="Path_216" data-name="Path 216" d="M2170.54,747c-189.3-193.8-355.1-218.8-715.3-362.1-445.3-177.2-698.3,328.7-1363.6,11-297.1-141.8-485-154.6-456.7-155.2" style="fill:none;stroke:#fff;stroke-miterlimit:10"/><path id="Path_217" data-name="Path 217" d="M2173.75,761.4c-190.2-193.1-359.61-211.2-717.7-357.7-447.7-183.1-700.5,325.3-1361.5,8.9C-205.56,268.9-398.76,259.1-368.36,260.8" style="fill:none;stroke:#fff;stroke-miterlimit:10"/><path id="Path_218" data-name="Path 218" d="M2177,775.9c-191.2-192.5-364.11-203.8-720.11-353.4-450.1-189.1-702.79,321.9-1359.4,6.7-303.2-145.5-501.6-152.3-469.2-148.4" style="fill:none;stroke:#fff;stroke-miterlimit:10"/><path id="Path_219" data-name="Path 219" d="M2180.14,790.3c-192.19-191.9-368.5-196.4-722.5-349-452.4-195.1-705,318.5-1357.3,4.6-306.3-147.4-510-151.2-475.6-145" style="fill:none;stroke:#fff;stroke-miterlimit:10"/><path id="Path_220" data-name="Path 220" d="M2183.34,804.7c-193.2-191.3-373-189-724.8-344.6-454.8-201.2-707.2,315-1355.1,2.4C-206,313.2-415,312.4-378.46,320.9" style="fill:none;stroke:#fff;stroke-miterlimit:10"/><path id="Path_221" data-name="Path 221" d="M2186.64,819.1c-194.19-190.7-377.5-181.7-727.3-340.3-457.1-207.3-709.3,311.6-1353,.3C-206.06,328-420.36,330.2-381.86,341" style="fill:none;stroke:#fff;stroke-miterlimit:10"/><path id="Path_222" data-name="Path 222" d="M2189.84,833.5c-195.2-190.1-381.89-174.4-729.6-335.9-459.5-213.4-711.5,308.1-1350.9-1.9C-206.16,342.8-425.76,348-385.16,361" style="fill:none;stroke:#fff;stroke-miterlimit:10"/><path id="Path_223" data-name="Path 223" d="M2193,847.9c-196.1-189.4-386.3-167.2-732-331.5-461.8-219.6-713.7,304.6-1348.8-4-318.5-154.9-543.3-146.6-500.8-131.3" style="fill:none;stroke:#fff;stroke-miterlimit:10"/><path id="Path_224" data-name="Path 224" d="M2196.25,862.3c-197.11-188.8-390.7-160-734.4-327.2C997.75,309.3,746,836.2,115.15,528.9-206.36,372.3-436.46,383.5-392,401.2" style="fill:none;stroke:#fff;stroke-miterlimit:10"/><path id="Path_225" data-name="Path 225" d="M2199.45,876.7c-198.11-188.2-395.2-152.8-736.7-322.8-466.5-232.1-718.1,297.6-1344.6-8.3-324.61-158.6-560-144.3-513.41-124.4" style="fill:none;stroke:#fff;stroke-miterlimit:10"/><path id="Path_226" data-name="Path 226" d="M2202.64,891.1c-199-187.6-399.5-145.7-739.09-318.5C994.75,334.2,743.34,866.7,121.14,562.1c-327.7-160.3-568.4-143-519.8-120.8" style="fill:none;stroke:#fff;stroke-miterlimit:10"/><path id="Path_227" data-name="Path 227" d="M2205.84,905.5c-200-187-403.89-138.7-741.5-314.1C993.24,346.6,741.94,882,124,578.8c-330.7-162.3-576.7-142-526.1-117.5" style="fill:none;stroke:#fff;stroke-miterlimit:10"/><path id="Path_228" data-name="Path 228" d="M2209,919.9c-201-186.4-408.3-131.6-743.9-309.7-473.4-251.2-724.5,287-1338.2-14.8-333.7-164.1-585-140.8-532.3-114" style="fill:none;stroke:#fff;stroke-miterlimit:10"/><path id="Path_229" data-name="Path 229" d="M2212.25,934.3c-202-185.8-412.7-124.6-746.3-305.3-475.6-257.7-726.7,283.5-1336.1-16.9C-206.86,446-463.46,472.4-408.76,501.4" style="fill:none;stroke:#fff;stroke-miterlimit:10"/><path id="Path_230" data-name="Path 230" d="M2215.54,948.7c-203-185.1-417-117.7-748.6-301-477.9-264.2-728.8,279.9-1334-19-339.9-167.9-601.7-138.5-545-107.2" style="fill:none;stroke:#fff;stroke-miterlimit:10"/><path id="Path_231" data-name="Path 231" d="M2218.75,963.1c-203.9-184.5-421.3-110.7-751-296.6C987.64,395.8,736.84,942.8,135.94,645.3c-342.9-169.8-610-137.4-551.3-103.7" style="fill:none;stroke:#fff;stroke-miterlimit:10"/><path id="Path_232" data-name="Path 232" d="M2222,977.5c-204.9-183.9-425.61-103.8-753.4-292.2C986.14,408,735.45,958,138.85,662c-346-171.7-618.41-136.2-557.61-100.3" style="fill:none;stroke:#fff;stroke-miterlimit:10"/><path id="Path_233" data-name="Path 233" d="M2225.14,991.9c-205.89-183.3-429.89-97-755.8-287.9-484.6-283.9-735.2,269.1-1327.6-25.5-349-173.6-626.7-135.1-564-96.9" style="fill:none;stroke:#fff;stroke-miterlimit:10"/><path id="Path_234" data-name="Path 234" d="M2228.34,1006.3c-206.89-182.7-434.2-90.1-758.1-283.5C983.54,432.2,733,988.3,144.74,695.2c-352.1-175.5-635.1-133.9-570.3-93.5" style="fill:none;stroke:#fff;stroke-miterlimit:10"/><path id="Path_235" data-name="Path 235" d="M2231.54,1020.7C2023.64,838.6,1793,937.4,1471,741.6c-488.9-297.3-739.4,261.9-1323.4-29.8-355.1-177.4-643.4-132.8-576.6-90" style="fill:none;stroke:#fff;stroke-miterlimit:10"/><path id="Path_236" data-name="Path 236" d="M2234.75,1035.1C2026,853.7,1792,958.6,1471.85,760.3c-491-304-741.5,258.3-1321.2-31.9-358.11-179.3-651.71-131.6-582.91-86.5" style="fill:none;stroke:#fff;stroke-miterlimit:10"/><path id="Path_237" data-name="Path 237" d="M2238,1049.5c-209.81-180.8-447-69.8-765.31-270.4C979.55,468.3,729,1033.7,153.55,745c-361.11-181.2-660-130.4-589.21-83.1" style="fill:none;stroke:#fff;stroke-miterlimit:10"/><path id="Path_238" data-name="Path 238" d="M2241.14,1063.9c-210.8-180.2-451.19-63.1-767.69-266-495.2-317.6-745.81,251-1317-36.2C-207.66,578.5-511.86,632.4-439.06,682" style="fill:none;stroke:#fff;stroke-miterlimit:10"/><path id="Path_239" data-name="Path 239" d="M2244.45,1078.3c-211.81-179.6-455.4-56.4-770-261.7-497.31-324.5-747.9,247.3-1314.9-38.4-367.31-185-676.81-128.1-601.91-76.2" style="fill:none;stroke:#fff;stroke-miterlimit:10"/><path id="Path_240" data-name="Path 240" d="M2247.64,1092.7c-212.8-179-459.6-49.7-772.4-257.3C976,504,725.34,1079.1,162.44,794.9c-370.2-187-685.1-127-608.2-72.8" style="fill:none;stroke:#fff;stroke-miterlimit:10"/><path id="Path_241" data-name="Path 241" d="M2250.84,1107.1c-213.7-178.4-463.8-43-774.8-252.9-501.3-338.3-752,240-1310.7-42.7-373.2-188.9-693.4-125.8-614.4-69.4" style="fill:none;stroke:#fff;stroke-miterlimit:10"/><path id="Path_242" data-name="Path 242" d="M2254,1121.6c-214.7-177.8-467.9-36.4-777.2-248.6-503.3-345.3-754.1,236.3-1308.5-44.8-376.3-190.9-701.8-124.8-620.8-66" style="fill:none;stroke:#fff;stroke-miterlimit:10"/><path id="Path_243" data-name="Path 243" d="M2257.25,1136c-215.7-177.1-472.11-29.8-779.6-244.2-505.2-352.3-756.2,232.6-1306.4-47C-208.06,652-538.86,721.2-455.86,782.3" style="fill:none;stroke:#fff;stroke-miterlimit:10"/><path id="Path_244" data-name="Path 244" d="M2260.45,1150.4c-216.7-176.5-476.2-23.2-781.9-239.8-507.1-359.4-758.3,229-1304.31-49.1-382.3-194.7-718.4-122.4-633.4-59.1" style="fill:none;stroke:#fff;stroke-miterlimit:10"/><path id="Path_245" data-name="Path 245" d="M2263.64,1164.8c-217.6-175.9-480.3-16.6-784.3-235.5-509-366.5-760.4,225.3-1302.2-51.3-385.3-196.6-726.7-121.2-639.7-55.6" style="fill:none;stroke:#fff;stroke-miterlimit:10"/><path id="Path_246" data-name="Path 246" d="M2266.84,1179.2c-218.6-175.3-484.39-10-786.7-231.1-510.9-373.6-762.4,221.5-1300.09-53.4-388.4-198.6-735.1-120.1-646-52.2" style="fill:none;stroke:#fff;stroke-miterlimit:10"/><path id="Path_247" data-name="Path 247" d="M2270,1193.6c-219.6-174.7-488.4-3.5-789.1-226.7C968.24,586.1,716.44,1184.7,183,911.3c-391.3-200.6-743.4-119-652.3-48.8" style="fill:none;stroke:#fff;stroke-miterlimit:10"/><path id="Path_248" data-name="Path 248" d="M2273.34,1208c-220.6-174.1-492.5,3.1-791.4-222.4-514.5-387.9-766.6,214.1-1295.8-57.7-394.5-202.6-751.9-117.8-658.8-45.4" style="fill:none;stroke:#fff;stroke-miterlimit:10"/><path id="Path_249" data-name="Path 249" d="M2276.54,1222.4c-221.6-173.4-496.5,9.6-793.8-218C966.54,609.2,714.14,1214.8,189,944.5c-397.4-204.5-760.1-116.6-665-41.9" style="fill:none;stroke:#fff;stroke-miterlimit:10"/><path id="Path_250" data-name="Path 250" d="M2279.75,1236.8c-222.5-172.8-500.5,16.1-796.2-213.6-517.9-402.4-770.7,206.6-1291.6-62-400.41-206.6-768.41-115.6-671.31-38.5" style="fill:none;stroke:#fff;stroke-miterlimit:10"/><path id="Path_251" data-name="Path 251" d="M2283,1251.2c-223.5-172.2-504.5,22.6-798.6-209.3-519.6-409.7-772.7,202.9-1289.5-64.2-403.4-208.5-776.8-114.3-677.6-35" style="fill:none;stroke:#fff;stroke-miterlimit:10"/><path id="Path_252" data-name="Path 252" d="M2286.14,1265.6c-224.5-171.6-508.5,29.1-801-204.9-521.19-417-774.8,199.1-1287.3-66.3-406.4-210.5-785.1-113.2-683.9-31.6" style="fill:none;stroke:#fff;stroke-miterlimit:10"/><path id="Path_253" data-name="Path 253" d="M2289.34,1280c-225.5-171-512.5,35.5-803.3-200.5-522.8-424.4-776.8,195.4-1285.2-68.5-409.4-212.5-793.4-112-690.2-28.2" style="fill:none;stroke:#fff;stroke-miterlimit:10"/><path id="Path_254" data-name="Path 254" d="M2292.54,1294.4c-226.5-170.4-516.4,42-805.7-196.2-524.4-431.8-778.9,191.6-1283.1-70.6-412.4-214.5-801.8-110.9-696.6-24.7" style="fill:none;stroke:#fff;stroke-miterlimit:10"/><path id="Path_255" data-name="Path 255" d="M2295.75,1308.8c-227.4-169.8-520.4,48.5-808.1-191.8-525.9-439.2-780.9,187.9-1281-72.8-415.3-216.5-810.1-109.7-702.9-21.3" style="fill:none;stroke:#fff;stroke-miterlimit:10"/><path id="Path_256" data-name="Path 256" d="M2299,1323.2c-228.4-169.1-524.31,54.9-810.5-187.4-527.4-446.6-782.9,184.1-1278.9-74.9C-208.76,842.4-608.86,952.3-499.66,1043" style="fill:none;stroke:#fff;stroke-miterlimit:10"/><path id="Path_257" data-name="Path 257" d="M2302.25,1337.6c-229.4-168.5-528.2,61.3-812.9-183.1-528.9-454.1-785,180.3-1276.8-77.1-421.3-220.5-826.8-107.4-715.5-14.4" style="fill:none;stroke:#fff;stroke-miterlimit:10"/><path id="Path_258" data-name="Path 258" d="M2305.45,1352c-230.4-167.9-532.1,67.7-815.2-178.7-530.3-461.6-787,176.5-1274.6-79.2-424.3-222.5-835.1-106.3-721.8-11" style="fill:none;stroke:#fff;stroke-miterlimit:10"/><path id="Path_259" data-name="Path 259" d="M2308.64,1366.4c-231.39-167.3-536,74.2-817.59-174.3-531.71-469.1-789,172.7-1272.5-81.4-427.3-224.5-843.5-105.1-728.1-7.6" style="fill:none;stroke:#fff;stroke-miterlimit:10"/><path id="Path_260" data-name="Path 260" d="M2311.84,1380.8c-232.3-166.7-539.8,80.6-820-170-533-476.6-791.1,169-1270.4-83.5-430.2-226.6-851.8-104-734.4-4.1" style="fill:none;stroke:#fff;stroke-miterlimit:10"/><path id="Path_261" data-name="Path 261" d="M2315,1395.2c-233.3-166.1-543.6,87-822.4-165.6-534.3-484.2-793.09,165.2-1268.3-85.7-433.2-228.6-860.09-102.8-740.79-.7" style="fill:none;stroke:#fff;stroke-miterlimit:10"/><path id="Path_262" data-name="Path 262" d="M2318.25,1409.6c-234.3-165.4-547.5,93.4-824.7-161.2-535.6-491.8-795.1,161.4-1266.2-87.8-436.1-230.7-868.5-101.7-747.1,2.7" style="fill:none;stroke:#fff;stroke-miterlimit:10"/><path id="Path_263" data-name="Path 263" d="M2321.45,1424c-235.31-164.8-551.31,99.8-827.1-156.9-536.8-499.4-797.1,157.5-1264-90-439.1-232.7-876.8-100.5-753.4,6.2" style="fill:none;stroke:#fff;stroke-miterlimit:10"/><path id="Path_264" data-name="Path 264" d="M2324.64,1438.4c-236.19-164.2-555.1,106.1-829.5-152.5-538-507-799.09,153.7-1261.9-92.1-442.1-234.8-885.1-99.4-759.7,9.6" style="fill:none;stroke:#fff;stroke-miterlimit:10"/><path id="Path_265" data-name="Path 265" d="M2327.84,1452.8c-237.2-163.6-558.8,112.5-831.9-148.1-539.2-514.7-801.1,149.9-1259.8-94.2-445-236.9-893.5-98.2-766,13.1" style="fill:none;stroke:#fff;stroke-miterlimit:10"/><path id="Path_266" data-name="Path 266" d="M2331.14,1467.3c-238.19-163-562.6,118.9-834.3-143.8-540.3-522.4-803.2,146.1-1257.7-96.4-447.9-239-901.8-97.1-772.3,16.5" style="fill:none;stroke:#fff;stroke-miterlimit:10"/><path id="Path_267" data-name="Path 267" d="M2334.34,1481.7c-239.2-162.4-566.3,125.3-836.6-139.4-541.29-530.1-805.2,142.3-1255.6-98.5-450.9-241.1-910.09-95.9-778.59,19.9" style="fill:none;stroke:#fff;stroke-miterlimit:10"/><path id="Path_268" data-name="Path 268" d="M2337.54,1496.1c-240.2-161.8-570.1,131.7-839-135-542.4-537.8-807.2,138.4-1253.4-100.7-453.8-243.2-918.5-94.8-785,23.4" style="fill:none;stroke:#fff;stroke-miterlimit:10"/><path id="Path_269" data-name="Path 269" d="M2340.75,1510.5c-241.11-161.1-573.8,138-841.4-130.7C956,834.2,690.14,1514.4,248.05,1277c-456.71-245.3-926.8-93.6-791.3,26.8" style="fill:none;stroke:#fff;stroke-miterlimit:10"/><path id="Path_270" data-name="Path 270" d="M2344,1524.9c-242.11-160.5-577.5,144.4-843.81-126.3-544.3-553.3-811.2,130.8-1249.19-105-459.7-247.4-935.2-92.5-797.6,30.2" style="fill:none;stroke:#fff;stroke-miterlimit:10"/><path id="Path_271" data-name="Path 271" d="M2347.14,1539.3C2104,1379.4,1766,1690.1,1501,1417.4c-545.2-561.1-813.2,126.9-1247.1-107.1-462.6-249.5-943.5-91.3-803.9,33.7" style="fill:none;stroke:#fff;stroke-miterlimit:10"/><path id="Path_272" data-name="Path 272" d="M2350.34,1553.7c-244.1-159.3-584.9,157.1-848.5-117.6-546.1-568.9-815.2,123.1-1245-109.3-465.5-251.7-951.8-90.2-810.2,37.1" style="fill:none;stroke:#fff;stroke-miterlimit:10"/><path id="Path_273" data-name="Path 273" d="M2353.54,1568.1c-245.1-158.7-588.5,163.5-850.9-113.2-547-576.7-817.1,119.2-1242.9-111.4-468.4-253.8-960.2-89-816.5,40.5" style="fill:none;stroke:#fff;stroke-miterlimit:10"/></g></g></svg>