<svg id="Layer_1" data-name="Layer 1" xmlns="http://www.w3.org/2000/svg" xmlns:xlink="http://www.w3.org/1999/xlink" viewBox="0 0 1440 980"><defs><linearGradient id="linear-gradient" x1="592.04" y1="1141.2" x2="592.04" y2="1140.2" gradientTransform="matrix(1599.87, 0, 0, -1260.9, -946443.93, 1438942.66)" gradientUnits="userSpaceOnUse"><stop offset="0" stop-color="#1e000c"/><stop offset="1" stop-color="#2f131e"/></linearGradient></defs><title>bg-signup</title><g id="final_wave" data-name="final wave"><path id="Path_128-2" data-name="Path 128-2" d="M-52,128.28C248.29-61.11,447.65-20,563.53,117.07c143.41,169.58,295.3,291.56,488.43,157,224.16-156.13,405,143.29,495.91,133.32V1260.9H-52Z" style="fill:url(#linear-gradient)"/><g id="Group_81" data-name="Group 81" style="opacity:0.5"><path id="Path_129" data-name="Path 129" d="M-52,128.28C248.29-61.11,447.65-20,563.53,117.07c143.41,169.58,295.3,291.56,488.43,157,224.16-156.13,405,143.29,495.91,133.32" style="fill:none;stroke:#5e1734;stroke-miterlimit:10"/><path id="Path_130" data-name="Path 130" d="M-50.88,142.86C248-40.8,447.65-1.43,564.15,131.77,617.35,192.7,671.43,247,728,284.78c96.69,64.42,202.1,80.49,323.71-3.36C1275.5,127,1457.29,422,1547.87,412.5" style="fill:none;stroke:#5d1734;stroke-miterlimit:10"/><path id="Path_131" data-name="Path 131" d="M-49.63,157.44c297.54-177.81,497.4-140.18,614.4-11,53.46,59.06,107.54,111.65,163.73,148,96.19,62.05,201.48,77,323-5.86,223.54-152.63,406.2,137.81,496.41,129" style="fill:none;stroke:#5c1733;stroke-miterlimit:10"/><path id="Path_132" data-name="Path 132" d="M-48.39,172C247.67-.06,447.9,35.83,565.52,161.18c53.7,57.31,107.78,108.15,163.6,143.16C824.69,363.9,930,378,1051.22,296,1274.5,145.1,1458,431.19,1547.75,422.71" style="fill:none;stroke:#5c1733;stroke-miterlimit:10"/><path id="Path_133" data-name="Path 133" d="M-47.27,186.6C247.42,20.25,447.9,54.52,566.15,175.88,620,231.45,674.05,280.54,729.62,314.19c95,57.44,200.36,70.15,321.35-10.84,223-149.15,407.44,132.45,496.78,124.47" style="fill:none;stroke:#5b1733;stroke-miterlimit:10"/><path id="Path_134" data-name="Path 134" d="M-46,201.3C247.29,40.69,448.15,73.21,566.89,190.58,621,244.41,675.05,291.76,730.25,323.91,824.69,379,930,390.57,1050.84,310.57c222.79-147.27,408.07,129.71,497,122.24" style="fill:none;stroke:#5a1732;stroke-miterlimit:10"/><path id="Path_135" data-name="Path 135" d="M-44.77,215.88c291.94-154.76,493-124.1,612.29-10.59,54.32,52,108.27,97.68,163.22,128.46,93.83,52.7,199.11,63.17,319.85-15.83,222.54-145.53,408.82,127,497.29,120.12" style="fill:none;stroke:#591732;stroke-miterlimit:10"/><path id="Path_136" data-name="Path 136" d="M-43.65,230.46c290.57-148.9,491.92-120,611.79-10.47,54.57,50.21,108.52,94.07,163.1,123.48,93.32,50.34,198.61,59.68,319.1-18.44,222.16-143.79,409.44,124.22,497.53,117.87" style="fill:none;stroke:#591731;stroke-miterlimit:10"/><path id="Path_137" data-name="Path 137" d="M-42.41,245c289.08-143.16,491.06-116.25,611.3-10.34,54.94,48.35,108.77,90.59,163,118.62,92.7,48,198,56.32,318.36-20.93C1272.13,190.33,1460.28,454,1547.88,448" style="fill:none;stroke:#581631;stroke-miterlimit:10"/><path id="Path_138" data-name="Path 138" d="M-41.16,259.61c287.7-137.43,489.93-112.26,610.67-10.22,55.2,46.6,109,87.1,162.85,113.77,92.2,45.6,197.37,52.83,317.61-23.43,221.66-140.3,410.68,118.87,497.9,113.51" style="fill:none;stroke:#571631;stroke-miterlimit:10"/><path id="Path_139" data-name="Path 139" d="M-40,274.31C246.3,142.74,448.77,166,570.13,264.22,625.58,309,679.28,347.83,732.86,373c91.58,43.24,196.87,49.34,316.86-25.92C1271.14,208.53,1461,463.21,1547.87,458.35" style="fill:none;stroke:#561630;stroke-miterlimit:10"/><path id="Path_140" data-name="Path 140" d="M-38.79,288.89c284.84-125.84,487.69-104.16,609.67-10,55.57,43,109.4,80,162.48,103.92,91.08,41,196.25,45.85,316.11-28.41,221.17-136.68,411.93,113.39,498.4,109" style="fill:none;stroke:#561630;stroke-miterlimit:10"/><path id="Path_141" data-name="Path 141" d="M-37.55,303.47C245.92,183.36,449,203.29,571.63,293.63c55.82,41.24,109.65,76.5,162.35,99.06,90.46,38.62,195.63,42.36,315.24-30.9,220.92-135,412.56,110.64,498.53,106.9" style="fill:none;stroke:#551630;stroke-miterlimit:10"/><path id="Path_142" data-name="Path 142" d="M-36.42,318.05c282.09-114.26,485.56-96.19,608.55-9.72,56.07,39.37,109.9,73,162.23,94.07,90,36.26,195.12,38.88,314.49-33.39,220.67-133.2,413.18,108,498.78,104.67" style="fill:none;stroke:#54162f;stroke-miterlimit:10"/><path id="Path_143" data-name="Path 143" d="M-35.18,332.75c280.73-108.53,484.45-92.2,608.05-9.59C629.19,360.78,683,392.68,735,412.37c89.46,33.89,194.5,35.51,313.74-35.89,220.3-131.45,413.8,105.3,499,102.43" style="fill:none;stroke:#53162f;stroke-miterlimit:10"/><path id="Path_144" data-name="Path 144" d="M-33.93,347.33c279.23-102.67,483.32-88.22,607.55-9.47,56.57,35.89,110.27,65.91,162,84.23,89,31.52,194,32,313-38.38C1268.65,254,1463,486.26,1547.88,483.89" style="fill:none;stroke:#52162f;stroke-miterlimit:10"/><path id="Path_145" data-name="Path 145" d="M-32.81,361.91c277.86-96.94,482.2-84.23,606.93-9.35,56.82,34,110.52,62.43,161.86,79.37,88.34,29.16,193.38,28.54,312.25-40.86,219.8-128,415,99.8,499.52,98.06" style="fill:none;stroke:#52162e;stroke-miterlimit:10"/><path id="Path_146" data-name="Path 146" d="M-31.56,376.49c276.48-91.21,481.08-80.25,606.43-9.35,57.07,32.27,110.77,58.94,161.73,74.51,87.84,26.79,192.76,25.05,311.5-43.36,219.55-126.22,415.79,97.07,499.65,95.82" style="fill:none;stroke:#51162e;stroke-miterlimit:10"/><path id="Path_147" data-name="Path 147" d="M-30.32,391.07c275.12-85.36,480-76.26,605.94-9.22,57.31,30.52,111,55.32,161.6,69.52,87.35,24.42,192.26,21.56,310.76-45.85,219.3-124.35,416.42,94.45,499.9,93.57" style="fill:none;stroke:#50162e;stroke-miterlimit:10"/><path id="Path_148" data-name="Path 148" d="M-29.2,405.77c273.63-79.62,478.84-72.27,605.44-9.1,57.44,28.66,111.27,51.83,161.48,64.67,86.85,22.05,191.64,18.19,310-48.35,219-122.61,417,91.71,500.15,91.46" style="fill:none;stroke:#4f162d;stroke-miterlimit:10"/><path id="Path_149" data-name="Path 149" d="M-27.95,420.35c272.25-73.89,477.72-68.16,604.81-9,57.69,26.91,111.52,48.34,161.36,59.68,86.35,19.81,191,14.7,309.26-50.84,218.67-120.86,417.66,89,500.4,89.22" style="fill:none;stroke:#4f162d;stroke-miterlimit:10"/><path id="Path_150" data-name="Path 150" d="M-26.71,434.92c270.89-68,476.73-64.16,604.32-8.84,57.94,25.17,111.77,44.85,161.23,54.82,85.73,17.45,190.52,11.22,308.39-53.33,218.42-119.12,418.28,86.23,500.65,87" style="fill:none;stroke:#4e162c;stroke-miterlimit:10"/><path id="Path_151" data-name="Path 151" d="M-25.59,449.5c269.52-62.3,475.61-60.18,603.82-8.72,58.19,23.3,112,41.24,161.11,50,85.23,15.07,189.89,7.72,307.64-55.82,218.18-117.38,418.91,83.48,500.77,84.72" style="fill:none;stroke:#4d162c;stroke-miterlimit:10"/><path id="Path_152" data-name="Path 152" d="M-24.34,464.08c268-56.44,474.48-56.2,603.19-8.6,58.44,21.56,112.27,37.76,161,45,84.73,12.71,189.27,4.24,306.89-58.31,217.93-115.63,419.53,80.87,501,82.61" style="fill:none;stroke:#4c152c;stroke-miterlimit:10"/><path id="Path_153" data-name="Path 153" d="M-23.09,478.78c266.64-50.71,473.23-52.2,602.69-8.47,58.69,19.81,112.52,34.27,160.86,40.12,84.23,10.34,188.77.87,306.14-60.8,217.68-113.76,420.16,78.12,501.27,80.37" style="fill:none;stroke:#4c152b;stroke-miterlimit:10"/><path id="Path_154" data-name="Path 154" d="M-22,493.36c265.27-45,472.11-48.1,602.2-8.35C639,503,693,515.67,741,520.28c83.74,8,188.15-2.62,305.4-63.3,217.43-112,420.78,75.38,501.52,78.12" style="fill:none;stroke:#4b152b;stroke-miterlimit:10"/><path id="Path_155" data-name="Path 155" d="M-20.73,507.94c263.9-39.12,471-44.11,601.71-8.22C640,515.92,694,526.88,741.59,530c83.23,5.48,187.52-6.11,304.64-65.79,217.18-110.28,421.4,72.64,501.77,76" style="fill:none;stroke:#4a152b;stroke-miterlimit:10"/><path id="Path_156" data-name="Path 156" d="M-19.48,522.52c262.41-33.39,469.87-40.12,601.08-8.1C640.91,528.87,694.86,538,742,539.84c82.73,3.11,187-9.6,303.9-68.28,216.8-108.53,422.15,69.9,501.89,73.76" style="fill:none;stroke:#49152a;stroke-miterlimit:10"/><path id="Path_157" data-name="Path 157" d="M-18.36,537.22c261-27.66,468.75-36.13,600.58-8.1,59.56,12.71,113.51,21.68,160.23,20.44,82.24-2.25,186.4-13.09,303.16-70.78,216.55-106.78,422.77,67.29,502.14,71.52" style="fill:none;stroke:#48152a;stroke-miterlimit:10"/><path id="Path_158" data-name="Path 158" d="M-17.11,551.8c259.67-21.8,467.63-32,600.08-8,59.68,10.84,113.76,16.44,160.11,15.57C824.82,557.78,928.86,543,1045.36,486c216.31-105,423.39,64.54,502.39,69.4" style="fill:none;stroke:#48152a;stroke-miterlimit:10"/><path id="Path_159" data-name="Path 159" d="M-15.87,566.38c258.3-16.07,466.51-28,599.46-7.85,59.93,9.1,114,13,160,10.71,81.36-4,185.28-19.93,301.53-75.88,216.06-103.29,424,61.8,502.64,67.16" style="fill:none;stroke:#471529;stroke-miterlimit:10"/><path id="Path_160" data-name="Path 160" d="M-14.62,581c256.8-10.34,465.38-24.05,599-7.73,60.18,7.35,114.26,9.35,159.86,5.73,80.86-6.47,184.66-23.42,300.79-78.37,215.8-101.42,424.64,59.06,502.88,64.92" style="fill:none;stroke:#461529;stroke-miterlimit:10"/><path id="Path_161" data-name="Path 161" d="M-13.5,595.54c255.43-4.49,464.27-19.94,598.46-7.6,60.43,5.6,114.51,5.85,159.74.87,80.37-8.85,184.16-26.92,300-80.87,215.56-99.68,425.26,56.32,503,62.68" style="fill:none;stroke:#451528;stroke-miterlimit:10"/><path id="Path_162" data-name="Path 162" d="M-12.25,610.24c254.06,1.24,463.14-16,598-7.48,60.55,3.87,114.76,2.25,159.61-4.11,79.87-11.21,183.54-30.4,299.29-83.36,215.19-97.93,425.89,53.7,503.27,60.56" style="fill:none;stroke:#451528;stroke-miterlimit:10"/><path id="Path_163" data-name="Path 163" d="M-11,624.82c252.69,7.1,462-11.84,597.34-7.35,60.81,2,115-1.25,159.49-9,79.37-13.7,182.91-33.89,298.54-85.85,214.94-96.19,426.51,51,503.52,58.32" style="fill:none;stroke:#441528;stroke-miterlimit:10"/><path id="Path_164" data-name="Path 164" d="M-9.89,639.39C241.31,652.23,451,629.92,587,632.17c61.06,1,115.26-4.86,159.37-13.83,78.87-16.08,182.41-37.26,297.8-88.35,214.69-94.44,427.13,48.23,503.76,56.07" style="fill:none;stroke:#431527;stroke-miterlimit:10"/><path id="Path_165" data-name="Path 165" d="M-8.64,654c249.83,18.57,459.78-3.73,596.34-7.1,61.3-1.5,115.51-8.47,159.24-18.81,78.38-18.57,181.79-40.75,297-90.84,214.44-92.7,427.76,45.48,503.89,54" style="fill:none;stroke:#421527;stroke-miterlimit:10"/><path id="Path_166" data-name="Path 166" d="M-7.39,668.55c248.45,24.43,458.53.25,595.71-7,61.56-3.24,115.76-12,159.12-23.68,77.87-21.06,181.17-44.23,296.3-93.32,214.19-90.84,428.38,42.73,504.13,51.7" style="fill:none;stroke:#411527;stroke-miterlimit:10"/><path id="Path_167" data-name="Path 167" d="M-6.27,683.25c247.08,30.16,457.41,4.37,595.22-6.85,61.67-5,116-15.57,159-28.66,77.37-23.42,180.67-47.72,295.43-95.81,213.94-89.09,429.12,40.12,504.38,49.46" style="fill:none;stroke:#411526;stroke-miterlimit:10"/><path id="Path_168" data-name="Path 168" d="M-5,697.83c245.58,35.89,456.28,8.35,594.71-6.85,61.93-6.73,116.26-19.19,158.87-33.52,76.88-25.92,180.05-51.21,294.68-98.31,213.69-87.34,429.75,37.38,504.64,47.23" style="fill:none;stroke:#401426;stroke-miterlimit:10"/><path id="Path_169" data-name="Path 169" d="M-3.78,712.41c244.22,41.74,455.17,12.46,594.22-6.73,62.18-8.6,116.5-22.8,158.74-38.37,76.38-28.41,179.43-54.58,293.94-100.8,213.31-85.6,430.37,34.63,504.88,45.1" style="fill:none;stroke:#3f1426;stroke-miterlimit:10"/><path id="Path_170" data-name="Path 170" d="M-2.66,727c242.85,47.47,454.05,16.45,593.6-6.6C653.37,710.05,707.69,694.1,749.56,677c75.88-30.78,178.92-58.07,293.18-103.3,213.07-83.86,431,31.9,505,42.86" style="fill:none;stroke:#3e1425;stroke-miterlimit:10"/><path id="Path_171" data-name="Path 171" d="M-1.41,741.57c241.47,53.33,452.92,20.56,593.1-6.48,62.55-12.09,117-29.9,158.49-48.22,75.38-33.27,178.3-61.56,292.44-105.79,212.82-82.11,431.61,29.16,505.25,40.62" style="fill:none;stroke:#3e1425;stroke-miterlimit:10"/><path id="Path_172" data-name="Path 172" d="M-.17,756.27c240,59.06,451.8,24.67,592.6-6.35,62.8-13.84,117.25-33.52,158.25-53.08,74.88-35.76,177.68-65.05,291.69-108.28,212.57-80.37,432.24,26.54,505.51,38.5" style="fill:none;stroke:#3d1424;stroke-miterlimit:10"/><path id="Path_173" data-name="Path 173" d="M1,770.85c238.62,64.79,450.69,28.66,592-6.23C656,749,710.43,727.49,751.05,706.56,825.32,668.3,928.24,638,1042,595.79c212.32-78.5,432.85,23.8,505.75,36.25" style="fill:none;stroke:#3c1424;stroke-miterlimit:10"/><path id="Path_174" data-name="Path 174" d="M2.2,785.43c237.24,70.65,449.56,32.77,591.48-6.11C657,762,711.3,738.58,751.67,716.4c73.77-40.75,176.56-71.9,290.2-113.26,212.08-76.76,433.49,21.05,506,34" style="fill:none;stroke:#3b1424;stroke-miterlimit:10"/><path id="Path_175" data-name="Path 175" d="M3.45,800c235.87,76.38,448.44,36.88,591-6C658,775,712.3,749.79,752.3,726.12c73.26-43.24,176.06-75.39,289.45-115.76,211.7-75,434.11,18.32,506.13,31.9" style="fill:none;stroke:#3b1423;stroke-miterlimit:10"/><path id="Path_176" data-name="Path 176" d="M4.57,814.71c234.37,82.11,447.32,40.87,590.48-5.86C658.85,788,713.18,761,752.8,736.09c72.77-45.6,175.44-78.88,288.57-118.25,211.45-73.27,434.74,15.57,506.38,29.65" style="fill:none;stroke:#3a1423;stroke-miterlimit:10"/><path id="Path_177" data-name="Path 177" d="M5.82,829.29c233,88,446.32,45,589.86-5.73C659.6,801,714.05,772.1,753.3,745.93c72.14-48.1,174.81-82.36,287.82-120.74,211.2-71.52,435.36,13,506.63,27.41" style="fill:none;stroke:#391423;stroke-miterlimit:10"/><path id="Path_178" data-name="Path 178" d="M7.06,843.87c231.63,93.7,445.2,49.09,589.36-5.61,64.17-24.42,118.62-55.08,157.5-82.61C825.57,705.06,928.24,669.8,1041,632.42c211-69.78,436.1,10.22,506.88,25.17" style="fill:none;stroke:#381422;stroke-miterlimit:10"/><path id="Path_179" data-name="Path 179" d="M8.18,858.44c230.26,99.56,444.08,53.08,588.87-5.6,64.41-26.17,118.74-58.69,157.37-87.47,71-53.08,173.69-89.22,286.33-125.73,210.7-67.9,436.73,7.48,507.13,23.06" style="fill:none;stroke:#371422;stroke-miterlimit:10"/><path id="Path_180" data-name="Path 180" d="M9.43,873c228.77,105.29,443,57.19,588.24-5.48,64.67-27.91,119-62.3,157.25-92.45,70.52-55.58,173.07-92.7,285.58-128.34,210.45-66.17,437.35,4.73,507.25,20.8" style="fill:none;stroke:#371422;stroke-miterlimit:10"/><path id="Path_181" data-name="Path 181" d="M10.67,887.72c227.4,111,441.84,61.3,587.75-5.35,64.91-29.66,119.24-65.92,157.12-97.32,69.9-58.06,172.57-96.19,284.84-130.83,210.2-64.42,438,2,507.5,18.57" style="fill:none;stroke:#361421;stroke-miterlimit:10"/><path id="Path_182" data-name="Path 182" d="M11.8,902.3c226,116.88,440.71,65.29,587.24-5.23,65.17-31.4,119.49-69.4,157-102.17,69.4-60.56,172-99.68,284.09-133.33C1250,598.9,1478.73,661,1547.88,678" style="fill:none;stroke:#351421;stroke-miterlimit:10"/><path id="Path_183" data-name="Path 183" d="M13,916.88c224.66,122.61,439.84,69.65,586.75-5.11,65.41-33,119.61-73,156.87-107.16C825.44,741.57,928,701.45,1040,668.8c209.58-60.93,439.22-3.36,508,14.2" style="fill:none;stroke:#341321;stroke-miterlimit:10"/><path id="Path_184" data-name="Path 184" d="M14.29,931.46c223.28,128.34,438.72,73.76,586.12-5,65.66-34.76,119.87-76.63,156.75-112C825.44,748.92,928,707.8,1039.63,676.15c209.33-59.18,439.84-6.1,508.12,12" style="fill:none;stroke:#341320;stroke-miterlimit:10"/><path id="Path_185" data-name="Path 185" d="M15.41,946C237.2,1080.24,453,1023.79,601,941.18c65.92-36.51,120-80.24,156.63-117,67.65-68,170.2-110,281.72-140.8,209.08-57.44,440.46-8.85,508.37,9.72" style="fill:none;stroke:#331320;stroke-miterlimit:10"/><path id="Path_186" data-name="Path 186" d="M16.66,960.74c220.41,139.93,436.47,81.74,585.12-4.73,66.16-38.38,120.24-83.86,156.5-121.86,67-70.4,169.58-113.52,281-143.29,208.83-55.58,441.08-11.47,508.62,7.6" style="fill:none;stroke:#32131f;stroke-miterlimit:10"/><path id="Path_187" data-name="Path 187" d="M17.9,975.32C237,1121,453.26,1061.17,602.4,970.71,668.81,930.59,722.89,883.36,758.78,844,825.19,771.1,927.86,727,1039,698.21c208.58-53.83,441.71-14.2,508.87,5.36" style="fill:none;stroke:#31131f;stroke-miterlimit:10"/><path id="Path_188" data-name="Path 188" d="M19,989.9c217.68,151.51,434.24,89.83,584-4.49,66.54-41.86,120.62-91.08,156.13-131.7,65.79-75.51,168.46-120.49,279.48-148.27,208.21-52.09,442.46-17,509.12,3.11" style="fill:none;stroke:#31131f;stroke-miterlimit:10"/><path id="Path_189" data-name="Path 189" d="M20.27,1004.48c216.18,157.24,433.11,93.94,583.5-4.37,66.79-43.61,120.87-94.57,156-136.56,65.17-77.87,167.84-124,278.74-150.77,208-50.33,443.08-19.68,509.24,1" style="fill:none;stroke:#30131e;stroke-miterlimit:10"/><path id="Path_190" data-name="Path 190" d="M21.51,1019.18c310.26,235.49,625.5-5,738.89-145.78C946.55,642.26,1447,686.5,1547.88,718.89" style="fill:none;stroke:#2f131e;stroke-miterlimit:10"/></g></g></svg>