<svg width="123" height="36" xmlns="http://www.w3.org/2000/svg"><g fill-rule="nonzero" fill="none"><path fill="#F1552D" d="M0 0h122.86v36H0z"/><path d="M49.97 19.52V8.05h5.16V19.6c0 5.55-3.32 8.83-8.86 8.83-5.56 0-8.91-3.27-8.91-8.83V8.05h5.18v11.47c0 2.77 1.2 4.33 3.73 4.33 2.5 0 3.7-1.56 3.7-4.33zm23.83.75l6.58-12.22H85v20.09h-5.19v-8.56l-4.33 8.3h-3.4l-4.38-8.3v8.57h-5.18V8.05h4.62l6.66 12.22zm32.57-.75V8.05h5.15V19.6c0 5.55-3.32 8.83-8.85 8.83-5.56 0-8.92-3.27-8.92-8.83V8.05h5.18v11.47c0 2.77 1.21 4.33 3.74 4.33 2.5 0 3.7-1.56 3.7-4.33zm-82.96-.88V8.04h5.19v20.09h-4.44l-7.6-10.53v10.55h-5.17V8.05h4.4l7.62 10.59z" fill="#FFF"/></g></svg>